<svg xmlns="http://www.w3.org/2000/svg" width="301" height="104.69" viewBox="0 0 301 104.69" style="fill:#ffff;fill-opacity:1;fill-rule:nonzero;stroke:none"><title>logo</title><path d="M91.73,15.87h6V22.6h.05l5.36-6.73h7.41l-7.08,7.63,8.23,11.9h-7.49l-4.81-7.6-1.67,1.83V35.4h-6Z"/><path d="M126.72,32.23a5.74,5.74,0,0,0,.66,3.17h-5.53a3.8,3.8,0,0,1-.19-1.34h-.05a5.77,5.77,0,0,1-4.57,1.7c-2.74,0-5-1.31-5-4.3,0-4.49,5.25-4.32,8-4.84.74-.14,1.48-.36,1.48-1.26s-.9-1.31-1.78-1.31c-1.67,0-2,.85-2,1.45h-5a4.1,4.1,0,0,1,2.46-3.83,11.65,11.65,0,0,1,4.84-.82c6.78,0,6.73,2.82,6.73,5.55Zm-5.2-3.2a9.23,9.23,0,0,1-2.13.68c-1.2.27-1.83.57-1.83,1.53a1.56,1.56,0,0,0,1.7,1.31,2.15,2.15,0,0,0,2.27-2.22Z"/><path d="M129.7,21.21h5.22V23H135a5.2,5.2,0,0,1,4.62-2.16,4.57,4.57,0,0,1,4.87,4.81V35.4h-5.42V28c0-1.64-.19-2.79-1.78-2.79-.93,0-2.16.46-2.16,2.74V35.4H129.7Z"/><path d="M153.94,21.21h2.9v3.34h-2.9v5c0,1.31.3,1.89,1.67,1.89a9.34,9.34,0,0,0,1.23-.08v4.1c-1.09,0-2.32.16-3.47.16-2.3,0-4.84-.36-4.84-4.24V24.54h-2.41V21.21h2.41V16.89h5.42Z"/><path d="M165.86,35.76c-5.33,0-7.74-3.53-7.74-7.47s2.41-7.44,7.74-7.44,7.74,3.5,7.74,7.44S171.2,35.76,165.86,35.76Zm0-11c-2.05,0-2.33,2-2.33,3.5s.27,3.53,2.33,3.53,2.33-2,2.33-3.53S167.92,24.79,165.86,24.79Z"/><path d="M176,21.21h5.22V23h.05a5.2,5.2,0,0,1,4.62-2.16,4.57,4.57,0,0,1,4.87,4.81V35.4h-5.42V28c0-1.64-.19-2.79-1.78-2.79-.93,0-2.16.46-2.16,2.74V35.4H176Z"/><path d="M202,25.34a1.37,1.37,0,0,0-.63-1.07,1.89,1.89,0,0,0-1.2-.41c-.77,0-1.64.16-1.64,1.09,0,.41.33.6.63.74.9.38,3,.49,4.76,1.09s3.39,1.64,3.39,4c0,3.94-3.77,5-7.22,5s-7-1.34-7.08-5h5.17A1.74,1.74,0,0,0,198.8,32a2.24,2.24,0,0,0,1.45.41c.71,0,1.83-.27,1.83-1.09s-.46-1.07-3-1.5c-4.13-.71-5.8-2-5.8-4.46,0-3.58,3.86-4.51,6.7-4.51,3.06,0,6.76.85,6.89,4.49Z"/><path d="M217.79,25.34a1.37,1.37,0,0,0-.63-1.07,1.89,1.89,0,0,0-1.2-.41c-.77,0-1.64.16-1.64,1.09,0,.41.33.6.63.74.9.38,3,.49,4.76,1.09s3.39,1.64,3.39,4c0,3.94-3.77,5-7.22,5s-7-1.34-7.08-5H214a1.74,1.74,0,0,0,.66,1.26,2.24,2.24,0,0,0,1.45.41c.71,0,1.83-.27,1.83-1.09s-.46-1.07-3-1.5c-4.13-.71-5.8-2-5.8-4.46,0-3.58,3.86-4.51,6.7-4.51,3.06,0,6.76.85,6.89,4.49Z"/><path d="M234.44,26.6a1.93,1.93,0,0,0-.6-1.34,2,2,0,0,0-1.37-.46c-2.08,0-2.38,1.81-2.38,3.53s.3,3.5,2.38,3.5a2.18,2.18,0,0,0,2.11-2.08h5.17a6.62,6.62,0,0,1-2.46,4.46,7.91,7.91,0,0,1-4.92,1.56c-4.27,0-7.69-3-7.69-7.44a7.34,7.34,0,0,1,7.69-7.47c3.72,0,6.89,1.83,7.22,5.74Z"/><path d="M242,15.87h5.42v6.87h.06a5.23,5.23,0,0,1,4.43-1.89,4.57,4.57,0,0,1,4.87,4.81V35.4h-5.42V28c0-1.64-.19-2.79-1.78-2.79-.93,0-2.16.46-2.16,2.74V35.4H242Z"/><path d="M274.49,35.4h-5.22V33.6h-.05a5.2,5.2,0,0,1-4.62,2.16,4.57,4.57,0,0,1-4.87-4.81V21.21h5.42v7.44c0,1.64.19,2.79,1.78,2.79.93,0,2.16-.46,2.16-2.74V21.21h5.42Z"/><path d="M277.59,15.87H283V35.4h-5.42Z"/><path d="M290.61,29.52a2.85,2.85,0,0,0,5,1.75h5.06c-1.09,3.06-4.08,4.49-7.3,4.49-4.54,0-8-2.68-8-7.41a7.29,7.29,0,0,1,7.49-7.49c5.63,0,8.07,3.15,8.07,8.67Zm5.2-2.82a2.33,2.33,0,0,0-2.38-2.38,2.57,2.57,0,0,0-2.79,2.38Z"/><path d="M91.57,43.23h10.69c5.14,0,6.24,2.9,6.24,4.9A4,4,0,0,1,106.09,52a4.76,4.76,0,0,1,3.39,4.87c0,3.91-3.39,5.94-6.84,5.94H91.57Zm6,7.6h3.17c1.26,0,2.05-.36,2.05-1.61,0-1-.82-1.34-2.05-1.34H97.58Zm0,7.28h3.53c1.26,0,2.35-.36,2.35-1.86,0-1.15-.68-1.78-2.11-1.78H97.58Z"/><path d="M126.66,62.76h-5.22V61h-.05a5.2,5.2,0,0,1-4.62,2.16,4.57,4.57,0,0,1-4.87-4.81V48.56h5.42V56c0,1.64.19,2.79,1.78,2.79.93,0,2.16-.46,2.16-2.74V48.56h5.42ZM113.86,43.5h4.65v3.56h-4.65Zm6.21,0h4.65v3.56h-4.65Z"/><path d="M134.19,56.88a2.85,2.85,0,0,0,5,1.75h5.06c-1.09,3.06-4.08,4.49-7.3,4.49-4.54,0-8-2.68-8-7.41a7.29,7.29,0,0,1,7.49-7.49c5.63,0,8.07,3.15,8.07,8.67Zm5.2-2.82A2.33,2.33,0,0,0,137,51.68a2.57,2.57,0,0,0-2.79,2.38Z"/><path d="M147,43.23h5.42V62.76H147Z"/><path d="M155.47,48.56h5.2v2.27h.05a4.15,4.15,0,0,1,4-2.63,6.18,6.18,0,0,1,1.59.22v4.79a5.47,5.47,0,0,0-2.13-.36c-2.13,0-3.28,1.26-3.28,4.29v5.61h-5.42Z"/><path d="M181.7,59.59a5.74,5.74,0,0,0,.66,3.17h-5.52a3.77,3.77,0,0,1-.19-1.34h-.05a5.77,5.77,0,0,1-4.57,1.7c-2.73,0-5-1.31-5-4.3,0-4.49,5.25-4.32,8-4.84.74-.14,1.48-.36,1.48-1.26s-.9-1.31-1.78-1.31c-1.67,0-2,.85-2,1.45h-5A4.1,4.1,0,0,1,170.13,49a11.64,11.64,0,0,1,4.84-.82c6.78,0,6.73,2.82,6.73,5.55Zm-5.2-3.2a9.23,9.23,0,0,1-2.13.68c-1.2.27-1.83.57-1.83,1.53a1.56,1.56,0,0,0,1.7,1.31,2.15,2.15,0,0,0,2.27-2.22Z"/><path d="M190.18,47h-5.42v-3.8h5.42Zm-5.42,1.53h5.42v14.2h-5.42Z"/><path d="M193.27,48.56h5.22v1.81h.05a5.2,5.2,0,0,1,4.62-2.16A4.57,4.57,0,0,1,208,53v9.74h-5.42V55.32c0-1.64-.19-2.79-1.78-2.79-.93,0-2.16.46-2.16,2.73v7.49h-5.42Z"/><path d="M111.07,90.12h-5.85l-2.11-11.9h-.05L101,90.12H95.12L89.82,70.59h5.91L98.1,82.65h.05l2.35-12.06h5.31l2.3,12.23h.05l2.43-12.23h5.94Z"/><path d="M123.57,74.39h-5.42v-3.8h5.42Zm-5.42,1.53h5.42v14.2h-5.42Z"/><path d="M126.66,75.92h5.22v1.81h.05a5.21,5.21,0,0,1,4.62-2.16,4.57,4.57,0,0,1,4.87,4.81v9.74H136V82.67c0-1.64-.19-2.79-1.78-2.79-.93,0-2.16.46-2.16,2.73v7.49h-5.42Z"/><path d="M150.9,75.92h2.9v3.34h-2.9v5c0,1.31.3,1.89,1.67,1.89A9.34,9.34,0,0,0,153.8,86v4.1c-1.09,0-2.32.16-3.47.16-2.3,0-4.84-.36-4.84-4.24V79.26h-2.41V75.92h2.41V71.6h5.42Z"/><path d="M160.2,84.23a2.85,2.85,0,0,0,5,1.75h5.06c-1.09,3.06-4.08,4.49-7.3,4.49-4.54,0-8-2.68-8-7.41a7.29,7.29,0,0,1,7.49-7.49c5.63,0,8.07,3.15,8.07,8.67Zm5.2-2.82A2.33,2.33,0,0,0,163,79a2.57,2.57,0,0,0-2.79,2.38Z"/><path d="M172.9,75.92h5.2v2.27h.05a4.15,4.15,0,0,1,4-2.63,6.17,6.17,0,0,1,1.59.22v4.79a5.47,5.47,0,0,0-2.13-.36c-2.13,0-3.28,1.26-3.28,4.29v5.61H172.9Z"/><path d="M192.37,75.92h2.9v3.34h-2.9v5c0,1.31.3,1.89,1.67,1.89a9.33,9.33,0,0,0,1.23-.08v4.1c-1.09,0-2.33.16-3.47.16-2.3,0-4.84-.36-4.84-4.24V79.26h-2.41V75.92H187V71.6h5.42Z"/><path d="M197.54,70.59H203v6.87H203a5.23,5.23,0,0,1,4.43-1.89,4.57,4.57,0,0,1,4.87,4.81v9.74H206.9V82.67c0-1.64-.19-2.79-1.78-2.79-.93,0-2.16.46-2.16,2.73v7.49h-5.42Z"/><path d="M230,90.12h-5.22V88.31h-.05a5.2,5.2,0,0,1-4.62,2.16,4.57,4.57,0,0,1-4.87-4.81V75.92h5.42v7.44c0,1.64.19,2.79,1.78,2.79.93,0,2.16-.46,2.16-2.74V75.92H230Z"/><path d="M233.08,75.92h5.2v2.27h.05a4.15,4.15,0,0,1,4-2.63,6.17,6.17,0,0,1,1.59.22v4.79a5.47,5.47,0,0,0-2.13-.36c-2.13,0-3.28,1.26-3.28,4.29v5.61h-5.42Z"/><path d="M28.55,102.55a1.84,1.84,0,0,1,1,.64,4,4,0,0,0,.84-3.12c-.89,0-1.72,1.39-1.82,2.48m2.29-3.78a5.07,5.07,0,0,1,.43,2.53,1.6,1.6,0,0,1,.42.12A4.58,4.58,0,0,0,31.63,98a1.07,1.07,0,0,0-.79.79m2.19.83a3.66,3.66,0,0,0-.12-2.87c-.1-.13-.65.18-.75.56a5,5,0,0,1,.56,2.24.77.77,0,0,1,.3.06m25.36-1.48a3.52,3.52,0,0,1,1.24.46,4.49,4.49,0,0,0,.5-2.94c-1,.1-1.76,1.76-1.75,2.48m2.31-3.56a5.12,5.12,0,0,1,.47,1.9,2,2,0,0,1,.42,0,3.81,3.81,0,0,0-.12-2.9c-.22-.07-.6.5-.77,1m2.05-.79a3.52,3.52,0,0,0-.32-2.17c-.23-.15-.49.29-.61.8a4.28,4.28,0,0,1,.65,1.37,1.09,1.09,0,0,1,.29,0M39.46,62C38,62.5,36.27,63.7,36.22,64a20.52,20.52,0,0,0-.17,2.75c.92-.54,1.18-1.49,2.22-2.31,1.87-1.48,2.78-1.69,2.68-1.9-.22-.39-1.09-.59-1.5-.59M59.73,89.62c-2.82-.29-5.54,2.24-7.32,1.12a11.13,11.13,0,0,1-2.69-2.84c-.5-.73-1.9-2.82-1.77-3.67.05-.35.61-.61,1.6-1.23a50,50,0,0,0,4.7-3.34c1.74-1.41,4.42-3.53,4.45-6.29,0-1.9-1.24-4-2.22-5.23a26.33,26.33,0,0,0-7.51-6,49.51,49.51,0,0,0-5-2.49c-1.42.8-2.12,1-3.33,1.67.88.35,1.61.93,1.47,1.41-.09.3-.31.37-1.37,1.07A17.06,17.06,0,0,0,39,65.17a21.36,21.36,0,0,0-1.87,2.3,5.24,5.24,0,0,1-1.06,1c0,.4,0,.76,0,1.27,4.61.13,8.78,1.47,10.79,4a6.78,6.78,0,0,1,.91,1.48,4.43,4.43,0,0,1-1.92,5.22c-1.28.85-4.2,1.36-5,2.14-.63.6-.69,1.68-1.44,2.62a4,4,0,0,1-1.21.94,2.29,2.29,0,0,0,1.95.84,4.6,4.6,0,0,0,.83-.88,2.55,2.55,0,0,0,.39-1.43c0-.14.2-.3.29.18.46,2.39-2.32,2.67-1.82,5.35a2.81,2.81,0,0,1,2.2-.53,9.89,9.89,0,0,1,.79-1.14,2.14,2.14,0,0,0,.31-1.3c0-.18.23-.24.32.37.28,1.73-1.55,2.16-.8,4.89a2.84,2.84,0,0,1,1.91-.59A2.4,2.4,0,0,0,45,90.24c0-.19.18-.38.33.25.3,1.28-.78,1.76-.22,3.45,1.92-.78,2.41.61,3.27,1.71a13.48,13.48,0,0,0,1.64,2c1.29,1,4.91.14,7.65.43A3.55,3.55,0,0,1,60,95a2.57,2.57,0,0,0-4.19-1c-.18.18-.07-.31.29-.61a3.1,3.1,0,0,1,4.24.66c.2-.5.6-.95.9-1a3.22,3.22,0,0,0-4.77-1.12c-.11.09-.14-.16.24-.49a3.64,3.64,0,0,1,4.7.57c.09-.52.36-.91.64-.91a3.56,3.56,0,0,0-2.3-1.45M74.94,50.19c-.87.59-.88,2-.72,2.86a2.47,2.47,0,0,1,1.25.06,3.56,3.56,0,0,0-.53-2.92m1.64.65a4.66,4.66,0,0,0-1.17-3c-.3,0-.36.76-.33,1.23a4.16,4.16,0,0,1,1.17,1.87,2,2,0,0,1,.33-.06M75.66,47a5.15,5.15,0,0,1,1.06,1.64,1.2,1.2,0,0,1,.26,0A3.88,3.88,0,0,0,76,46c-.26-.07-.36.66-.29,1M72.17,22.25A2.91,2.91,0,0,0,69.71,21c-.22.9.94,1.94,1.73,2.23a2.27,2.27,0,0,1,.72-1m-1.55-2.33a3.54,3.54,0,0,0-3-.87c-.08.42.5,1,.92,1.23a3.51,3.51,0,0,1,2-.1l.12-.27m-5.73,2.81A3.27,3.27,0,0,1,65,20a3.67,3.67,0,0,1,1-1.18,1,1,0,0,1-.83-.67c-3,1.61-1.45,4.74-1.76,7.53C63.2,27.4,61,28,59.56,28.93a18.44,18.44,0,0,0-3.32,2.5c1.56,3.69.49,4.49,2.23,6.28a1.84,1.84,0,0,1-1.26.61,16.45,16.45,0,0,1-.57,4.37c1.27-.52,2.22.34,3.28-.69a2.71,2.71,0,0,1-.76-2.89c.14-.44.33-.39.33-.27a1.74,1.74,0,0,0,.08.57,3.58,3.58,0,0,0,2.56-.32c-1.36-2.32,1.24-4.36,3.21-5.64,1.36-.89,3.33-1.87,4.3-3.19,1.31-1.77.67-3.69,1.51-6.31-1-.5-2.3-1.48-2.16-2.88-1,.13-2.26,1.42-1.59,3.61.11.38-.12.27-.34-.09a3.08,3.08,0,0,1,.88-4c-.55-.35-1-1-.94-1.39-1.58.57-2.08,1.94-1.74,3.76.05.27-.17.28-.36-.25m3.3-4.93a2.81,2.81,0,0,0-2.35,0c-.24.21.06.5.75.64a4.07,4.07,0,0,1,1.56-.37,1.06,1.06,0,0,1,0-.28m-19.5-2.64c-.06,0-.1.11-.19.25a3.67,3.67,0,0,1-.65.76,5.25,5.25,0,0,1,1.13.08,2,2,0,0,0-.29-1.09m-5.94,1c.36,1.21,2.52.06,4.2-.05a5.08,5.08,0,0,0,1.16-1.27c-2.05-.41-4.32-.14-5.36,1.32m6.38-3.88a4.85,4.85,0,0,1,.3,1c0,.17,0,.31.1.27a2.31,2.31,0,0,0,.88-1.27,6.6,6.6,0,0,1-1.28,0M42.36,15c1.41-1.17,3.46-1.61,6.46-1.1a3.89,3.89,0,0,0-.56-1.62c-3-.49-5.84-.54-5.91,2.72M33.6,1.25c-4.5-.14-6.06.57-8.82.69a3.16,3.16,0,0,1-1.12-.23,2.29,2.29,0,0,0,0,1.44C22.14,4.05,22,5.83,20,5.51a1.75,1.75,0,0,0,.59,1.58c.21-.08.63-.23.56,0a17.14,17.14,0,0,0-.85,4.42c-.12.69-1.1,1.32-2,1.5a1.57,1.57,0,0,0,1.17,1.68c.51-1,1.27-1.2,1.14-.88a7.07,7.07,0,0,0-.41,2.14,15.51,15.51,0,0,0,1.24,6.23c1.41,3.27,3.15,5.88.73,7.41.32.76,1.88,1.29,3,.82a4,4,0,0,0,.11-2.52c0-.11.09-.13.21,0a3,3,0,0,1,.61,2.69c-.36,2.46-2.46,5.5-1,8.36A4,4,0,0,1,26.81,38a4,4,0,0,1,1.44-3.17c.51-.37.59-.14.46,0-1.07,1.3-1,3.75-.71,6,.36,2.75-.51,4.36-1.34,4.8a4.08,4.08,0,0,0,3.57-.2,5.33,5.33,0,0,0,2-1.9,5.73,5.73,0,0,1-.78-4.18c.2-.82.65-1.1.57-.7-.61,3.46,2.68,5.05,2.61,8.43,1.71-.56,2.46-2.62,2.32-4.56,0-.26.24-.13.33.13,1,2.76-.79,6.61-4.06,6.28a6.85,6.85,0,0,0-.55-4.48,5,5,0,0,1-2,2,18.7,18.7,0,0,1-.44,2.24A10.66,10.66,0,0,1,27.36,54c-3.08,3.16-4.22,3.41-6.23,6.33a9.77,9.77,0,0,1-2.54,1.48c-6.09,2.4-11.2-.86-10.79-7.4C8,51.76,9.33,48.3,10.42,45.8c3.19-7.31,6.2-13.42,6.58-19,.32-4.58-1.65-9.15-6.42-9.2-3.24,0-6.36,2.62-6.43,7.95,0,3.14,0,5.51-1.31,7.65A11.89,11.89,0,0,1,2,34.4a5.9,5.9,0,0,0,5.12-2.23,3.91,3.91,0,0,1,.41.91c1.37-1.31,1.59-3.74,1.08-5.67a1.7,1.7,0,0,0,2-1A3.75,3.75,0,0,1,7.54,22a3.46,3.46,0,0,1,2.84-2.84c4-.47,5.14,3.56,5.08,7.38-.07,4.85-3,10.2-5.59,15.63-2.09,4.37-4.45,8.81-4.69,13C4.92,59.72,7,67.95,18.49,66.17c.46-1.34,1-1.86,1.37-1.7.11.06,0,.27,0,.7A17.34,17.34,0,0,0,19.61,69c.14,3,1.43,6,1.58,8.11.24,3.41-1.52,3.8-4.31,4.12a13.94,13.94,0,0,0-4,.6c-.62.3-1,1.84-1.63,2.61a3.79,3.79,0,0,1-2.41,1.34,2.69,2.69,0,0,0,2.46,1.35,3.39,3.39,0,0,0,1-1.89c0-.18.26-.31.24.36a4.56,4.56,0,0,1-3.56,4A2.76,2.76,0,0,0,11.71,91a3.54,3.54,0,0,0,1.73-2.27c.08-.31.27-.17.26.24a3.67,3.67,0,0,1-1.3,2.61,2.67,2.67,0,0,0-1,2.6,3.67,3.67,0,0,1,2.1-.14,3.07,3.07,0,0,0,1-1.68c0-.27.32-.21.27.42-.11,1.49-1.34,2.17-1,3.58,2.92-1.4,3.24,3.79,5.5,5.35,1.88,1.29,5.37.52,8.54.75.23-1.4,1.12-2.83,2.35-3.09-.53-2-2.84-1.92-3.9-1.23-.23.15-.16-.15.1-.37a3,3,0,0,1,4,.44,1.61,1.61,0,0,1,1-.79,3.21,3.21,0,0,0-4.67-1.3c-.28.18-.2-.23.3-.52a3.52,3.52,0,0,1,4.78,1.16c.18-.3.57-.67.87-.65A3.66,3.66,0,0,0,29.11,94c-3,.05-5.48,2-6.57.5a16.37,16.37,0,0,1-2.87-8.62c0-.32,0-.61.3-.72,2.3-.52,4.48-1,6.43-1.59s4.17-1.41,5.67-3.16,2-6.09,2.3-9.52c.13-1.64.29-4.06.42-5.85.2-2.87.81-4.71,1.93-5.23.29-.13.43,0,.21.4a6.51,6.51,0,0,0-.63,2.17,13.17,13.17,0,0,1,1.6-1.06c1.47-.8,2.46-1.23,4.08-2.08a28.09,28.09,0,0,0,4.14-2.76,11.25,11.25,0,0,0,2.22-2.15,4.15,4.15,0,0,1-.44-.74,4.7,4.7,0,0,1-3.7,1.84,3.33,3.33,0,0,0-.95-3.31,20.41,20.41,0,0,1-2.24-2c-2.09-2.29-.31-7.12-2.45-10-.15-.3.17-.22.53.11,1.25,1.18,1.48,3,1.74,4.82.19,1.37.27,3,.92,4,1.16,1.82,3.8,2.22,3.68,5,.84-.22,1.87-1,1.92-1.75a2.22,2.22,0,0,0-.65-1.4c-.11-.08,0-.25.29-.15.62.19.93,1,1.19,1.52a7,7,0,0,0,1,1.65c.76.88,1.7,1.33,1.82,2.76a2.5,2.5,0,0,0,1.73-1.89c-.37-1.07-.13-2.07-1.24-2.8-.15-.1-.08-.34.52-.09,1.41.59,1.2,2.28,1.88,3.2a3.16,3.16,0,0,0,1.93,1.34,3.12,3.12,0,0,1,1.23-2.3,1.52,1.52,0,0,0-.69-1.19c-.15-.11-.12-.34.5,0,1.28.65.9,2.47,2.62,3.2.49-1.51,2.33-1,4.08-.54a15.22,15.22,0,0,0,2.88.54c3.47.17,4.05-2.17,7.1-2.92-.22-1.52.1-2.91,1.07-3.49a2.66,2.66,0,0,0-4.09.29c-.16.21-.14-.16.11-.51a3,3,0,0,1,3.9-.87c0-.47.16-1.25.45-1.27a3.27,3.27,0,0,0-4.59.28c-.16.18-.12-.17.07-.45a3.39,3.39,0,0,1,4.61-.59c0-.31.15-1,.51-1a3.68,3.68,0,0,0-3.08-1c-3.5.35-4.46,4.21-8.23,3.9a20.76,20.76,0,0,1-3.41-1.21c-.88-.3-2-.61-3-.84-2.7-.63-5.21-.67-6.6-2.49a5,5,0,0,1-1-2.45c-.08-.5.11-.73.25-.39.83,1.63,1.69,3.14,3.75,3.54a14.53,14.53,0,0,0,1.37-6.69c-.9-.4-.89-.81-1.18-.93a6.5,6.5,0,0,1-1.1,4.23,4.25,4.25,0,0,0-3.09-3.32c-.18,0-.21-.35.57-.3a3.63,3.63,0,0,1,2.31,1.08,7.47,7.47,0,0,0-.41-4.92,6.53,6.53,0,0,0-2-2.61c-.19-.14-.11-.36.51,0a5.9,5.9,0,0,1,3.1,4.68c.84.49,1.2,1.6,2.38,1.28-1-1.14-.51-3-2.11-5.81a8.42,8.42,0,0,0-3.91-3.47c-2.37-1.16-5.21-2-7-2.71s-3-1.62-3.22-4.38a3.6,3.6,0,0,1-1.4-1.18,2.21,2.21,0,0,0-.58,1.41,3.76,3.76,0,0,1-2-3c-.39.06-1.18,2.3-4.05,1.23,1.71-1.78-.63-3.19,1.21-5.32.35-.43.87-.54.64-.22-1.68,2.4.35,3.23-.44,4.8,1.82.17,1.93-2.24,3.53-2.2-.22,1.07,0,2.52.68,3a2.91,2.91,0,0,1,1.56-1.39A3,3,0,0,0,42,20.13c1.72.38,3.66-.64,5.06-.44A2.41,2.41,0,0,1,48.93,21c.7-.69,1.34-3.29,1.07-3.49-2.74-1.71-7.18,2-8.47-1.14a3.64,3.64,0,0,1-.25-1.87c.38-2.5,2-3.71,5-3.49,1.31.09,4.17.71,4.93.14s.46-2.24.08-3c-.77-.21-1.66-.72-1.62-1.29s.52.56,1.54.24c.29-.13.44-1.17.26-1.23a13.88,13.88,0,0,0-5.91-.79c-.3.89-1,1-1.06,1.67a3.77,3.77,0,0,1-1,2.53c-.19.13-.18-.07-.06-.44a2.75,2.75,0,0,0,.09-1.7c-.45-1-2.41-.86-2.46-2,0-.45.23-.4,2.17.05.82.19.9.2,1,0,.32-.72-.79-1.11-1.77-1.35a13.58,13.58,0,0,0-6.82-.17c1.16.55,1.47,1.67,1.1,2.2-.25.34-.07-.55-1.38-1.34s-4-1-4.45-.31a4,4,0,0,0-.27,2.08,3.32,3.32,0,0,0,1.44,2.47c1.38.92,2.3.41,2.18.7-.29.63-2.09.54-3.14-.3a4.31,4.31,0,0,1-1.69-2.91,4.59,4.59,0,0,1,.43-2.82c.57-.68,2.2-.83,3.72-.53a12.32,12.32,0,0,1,4.08-.52A7.42,7.42,0,0,0,33.6,1.25M51.2,12.39a3.79,3.79,0,0,1-1.38,1.68,13.94,13.94,0,0,0,3.52.35,1.8,1.8,0,0,0,1.49-2.76c-.05-.09,0-.36.32-.17a2.27,2.27,0,0,1-.43,4.1c-1.72.62-3.86-.31-5.37-.56a3.71,3.71,0,0,1,.41,1.22c.42.11,1.47.42,1.43.81a13.81,13.81,0,0,1-.87,3.73c-.44,1-1.24,2.12-2.21,2.25.2-3.41-3.6-1.06-5.75-1.76C42.16,23.69,46,24.34,50,26.08a11.69,11.69,0,0,1,5.57,4.13,30.3,30.3,0,0,1,5.1-3c.8-.41,1.53-.78,1.69-1.54a13.45,13.45,0,0,0-.07-3.13c-.64-4.73,4-7.34,7.05-4.94a1.47,1.47,0,0,0-.2.59,6.35,6.35,0,0,1,2.62,1.49,2.26,2.26,0,0,0-.45.76,4.3,4.3,0,0,1,2.1,2,5.29,5.29,0,0,0-1,1.37,17.29,17.29,0,0,0-.84,4.14,7.76,7.76,0,0,1-1.46,3.47c-1.68,2-5.14,3.09-6.84,5.19-.58.71-.59,2.25.42,2.61a4,4,0,0,1-3.61,1.28,1.83,1.83,0,0,0,1.47,1.23c-1.45,2.89-4,1.45-5.25,2.23a7.32,7.32,0,0,1-.32.86,29.59,29.59,0,0,1,5.6,1.62c1.12.45,2.81,1.45,4.39.87a12.86,12.86,0,0,0,2.75-2,6,6,0,0,1,4.88-1.59,5.15,5.15,0,0,1,4.26,5.68,2.1,2.1,0,0,0-.63,0,8.82,8.82,0,0,1,.13,2.34,2.19,2.19,0,0,0-.76,0,5.79,5.79,0,0,1-.54,2.66,4,4,0,0,0-2.37-.1c-2.28.74-3.8,3.2-7.42,2.9a22.2,22.2,0,0,1-2.8-.46A10.88,10.88,0,0,0,61,56.18c-.65.09-.69.51-.82,1.22a3.22,3.22,0,0,1-2.79-2.08c-.71.51-.65,1.43-.67,2.26a4.42,4.42,0,0,1-3.33-1.64A3.72,3.72,0,0,1,50,57.87a2.72,2.72,0,0,0-.7-2.29,16.14,16.14,0,0,1-3.41,3,42.6,42.6,0,0,1,8.53,5.49c2.45,2.1,5.34,5.41,5.5,8.79.17,3.64-2.45,5.74-4.55,7.29s-3.81,2.78-5.79,4.1a.26.26,0,0,0-.12.37,13.43,13.43,0,0,0,2,3.75c.45.58,1.35,1.63,2.24,1.66,1.38,0,3.33-1.21,4.91-1.41,3.44-.44,5.94,2.45,4.84,6.21a1.4,1.4,0,0,0-.71-.13,6.74,6.74,0,0,1-.67,3,2.16,2.16,0,0,0-.82-.31,5.8,5.8,0,0,1-1.32,2.79,3.25,3.25,0,0,0-1.58-.65c-4.9-.21-7.16.44-8.91-.69a9.56,9.56,0,0,1-1.68-2c-.52-.69-1.1-1.75-1.64-1.88a1.41,1.41,0,0,0-1.46.45A3.16,3.16,0,0,1,44,93.07a2.27,2.27,0,0,0-1.83.81,4.65,4.65,0,0,1-.67-3.16,2.33,2.33,0,0,0-2.14.91,3.67,3.67,0,0,1-.15-3.7,3.4,3.4,0,0,1-2.55-2.15c2-.83,2.23-2.09,2.87-3.48.85-1.84,6.28-2,6.86-4.64A4.08,4.08,0,0,0,46,75.22c-1.46-2.71-6.08-3.57-10-3.54a31.28,31.28,0,0,1-.84,5.83,10.3,10.3,0,0,1-2.09,4.16c-1.3,1.45-3.58,2.27-5.65,2.89s-3.9,1-6.09,1.54c-.36,0,.18,3.76,1.3,6.17.61,1.31.84,2,1.93,1.85C25.9,93.9,27.76,93,29.48,93c3.5.12,5.94,3.85,4,7.64a1.87,1.87,0,0,0-.59-.25,6.42,6.42,0,0,1-.84,2.27,2.55,2.55,0,0,0-.78-.39,4.77,4.77,0,0,1-1.64,2.37,2.69,2.69,0,0,0-1.88-.88c-5.28-.2-7.56.58-9.7-1.38a8.21,8.21,0,0,1-1.71-2.75c-.9-2.08-1.61-3.23-3.15-1.71a3.05,3.05,0,0,1-.29-3,3.29,3.29,0,0,0-2.19.36A3.51,3.51,0,0,1,10.84,92,3.6,3.6,0,0,1,7.74,89a3.73,3.73,0,0,0,2.46-1,3.69,3.69,0,0,1-2.74-3,4.34,4.34,0,0,0,2.47-.64c1.28-1,.88-3,2.86-3.69,2.38-.8,7,.28,7.18-2.7.06-1.25-.85-3.62-1.24-5.11a19.78,19.78,0,0,1-.64-5c-11,1-14.52-6.24-14.2-12.15.25-4.82,2-8.17,4.79-13.75,3.45-6.86,5.95-11.8,5.74-16.52-.1-2.15-.89-4.68-2.49-5.13-3.06-.85-4.23,2.61-2.74,4.4a3,3,0,0,0,2.63.92,2.58,2.58,0,0,1-1.9,2.85A6.23,6.23,0,0,1,7,35a4.78,4.78,0,0,0-.2-.93c-1.5,1.17-4.72,2.4-6.82,1a20.61,20.61,0,0,0,1.33-1.62,7.72,7.72,0,0,0,1.6-4c.1-1.63.17-3.22.2-4.55.1-4.19,2.88-8.52,8-8.14,4.31.32,6.75,3.84,7,8.55.25,5.43-2.49,11.67-6.2,20.38C10.42,49.08,9,52.68,9.16,55.45c.14,3.41,2.42,5.8,5.64,5.88a8.43,8.43,0,0,0,5.4-1.93A12.92,12.92,0,0,0,21,58.29c2.46-3.41,7.49-5.61,7.79-11-1.68.52-3.85-.52-4.22-1.76,1.5-.56,2.58-1.78,2.2-4.91,0-.29-.06-.71-.08-1.07a2.91,2.91,0,0,0-1.91,1.37c-2.73-2.82-1.32-6.42-.39-8.93a3.91,3.91,0,0,1-4-2.94,1.74,1.74,0,0,0,1.63-1.77,8.92,8.92,0,0,0-.94-2.74,18.41,18.41,0,0,1-2.21-8.5,4.15,4.15,0,0,1-2.12-3.86c1.29-.09,2.21-.71,2.25-1.53A11.35,11.35,0,0,1,19.44,8a3.36,3.36,0,0,1-.51-3.68,3.07,3.07,0,0,0,1.94-.14A16.22,16.22,0,0,1,22.3,2.69,3.52,3.52,0,0,1,22.89.2a5.47,5.47,0,0,0,1.55.39C27,.84,33-1,37.52.73a6.56,6.56,0,0,1,2.3,1.47,29,29,0,0,1,3.1.54,20.42,20.42,0,0,1,3,1c.33.06,1.25.13,2.17.21s3.79.6,4.35,1.2,0,1.54,0,2.61.52,2.76-.15,3.94a1.49,1.49,0,0,1-1.08.65"/><path d="M36,7.06c-.13.63-.68.78-.68.31,0-1.34-1.41-2-2.89-2.15-.39,0,0-.32.41-.36,1.42-.13,3.47.76,3.16,2.2"/><path d="M23.86,19c-.5,2.86,1,3,1.13,5.14a3,3,0,0,0,2.79-1.54c.1-.16.2,0,.11.37a3.33,3.33,0,0,1-4.08,2.29c.82-1.92-1.56-3.78-.29-6.13.25-.46.37-.37.34-.14"/><path d="M29,26.75c.17-.21.31-.15.25.05-1.42,4.74,2.07,5.07,2.34,9.16,1.45-.39,2.1-1.57,2.58-3,.11-.38.31-.17.28.34a5,5,0,0,1-.68,2.42A3.83,3.83,0,0,1,30,37.51c1.1-3.56-1.9-4.89-1.91-8.09A4.85,4.85,0,0,1,29,26.75"/><path d="M47.5,35.29c-.11-.17-.12-.48.5.1,2.83,2.6,0,7.12,1.94,9.35-2.61,1-5.11-.78-5.4-2.32-.14-.76.41.25,1.13.73a4,4,0,0,0,2.39.67c-.73-2.78,1.53-5.14-.57-8.53"/>
</svg>